<svg xmlns="http://www.w3.org/2000/svg" height="18" width="32">
<path style="fill:none;stroke:#000000;stroke-width:1.2;stroke-linecap:round;stroke-linejoin:round;" d="m 0.6,3.6 v 10.8 z m 30.8,0 V 14.4 Z M 2,9 5.4,5.6 v 6.8 z M 26.6,5.6 30,9 26.6,12.4 Z M 8.6,9 c 0,-0.8 0.6,-1.4 1.4,-1.4 0.8,0 1.4,0.6 1.4,1.4 0,0.8 -0.6,1.4 -1.4,1.4 C 9.2,10.4 8.6,9.8 8.6,9 Z m 6,0 c 0,-0.8 0.6,-1.4 1.4,-1.4 0.8,0 1.4,0.6 1.4,1.4 0,0.8 -0.6,1.4 -1.4,1.4 -0.8,0 -1.4,-0.6 -1.4,-1.4 z m 6,0 c 0,-0.8 0.6,-1.4 1.4,-1.4 0.8,0 1.4,0.6 1.4,1.4 0,0.8 -0.6,1.4 -1.4,1.4 -0.8,0 -1.4,-0.6 -1.4,-1.4 z" />
</svg>
