<svg xmlns="http://www.w3.org/2000/svg" height="16" width="16">
  <style>
    .context {
      fill:none;stroke:#ffffff;stroke-width:1.2;stroke-linecap:round;stroke-linejoin:round;
    }
    .background {
      fill: #3b226d;
    }
    @supports (-moz-context-properties: fill) {
    .context {
      stroke:context-fill #8e8e98;stroke-opacity:context-fill-opacity;
    }
    .background {
      display: none;
    }
    }
  </style>
<rect class="background" x="0" y="0" width="16" height="16" rx="3" ry="3"/>
<path class="context" d="M8 .624C6.9.624 5.6 5.6 5.6 5.6S1 5.4.7 6.5C.4 7.6 4.2 10 4.2 10s-2.1 4.7-1 5.3c1.1.6 4.8-2.8 4.8-2.8s3.7 3.4 4.8 2.8c1.1-.6-1-5.3-1-5.3s3.8-2.4 3.5-3.5c-.3-1.1-4.9-.9-4.9-.9S9.1.624 8 .624Z"/>
</svg>
