<svg xmlns="http://www.w3.org/2000/svg" width="16" height="16" viewBox="0 0 16 16">
<g style="fill:none;stroke:context-fill;stroke-opacity:context-fill-opacity;stroke-width:1.2;stroke-linecap:round;stroke-linejoin:round">
<path d="M8.66 15.4h-1.2c-.69 0-1.3-.5-1.5-1.2L5.58 13c-.26-.1-.51-.3-.76-.5l-1.41.4c-.65.1-1.37-.1-1.72-.8l-.6-.9c-.342-.7-.252-1.45.22-1.87l1-1v-.81l-.99-.97C.842 6.06.748 5.36 1.1 4.78l.6-.98c.34-.58 1.05-.87 1.7-.72l1.44.32c.26-.16.5-.3.74-.41l.38-1.27c.2-.64.81-1.089 1.5-1.091h1.2c.69 0 1.28.441 1.34 1.071l.4 1.3c.3.11.5.25.8.4l1.3-.32c.7-.15 1.5.14 1.8.72l.6.98c.4.57.3 1.28-.2 1.77l-1 .97v.81l1 1c.5.42.6 1.17.2 1.87l-.6.9c-.3.7-1.1.9-1.8.8l-1.3-.4c-.3.2-.5.4-.8.5l-.4 1.2c-.1.7-.64 1.2-1.34 1.2"/>
<circle cx="8" cy="8" r="2.4"/>
</g>
</svg>
